<svg width="136" height="136" xmlns="http://www.w3.org/2000/svg" xmlns:xlink="http://www.w3.org/1999/xlink" overflow="hidden"><defs><clipPath id="clip0"><path d="M980 197 1116 197 1116 333 980 333Z" fill-rule="evenodd" clip-rule="evenodd"/></clipPath></defs><g clip-path="url(#clip0)" transform="translate(-980 -197)"><path d="M1061.58 268C1052.53 268 1043.47 268 1034.42 268 1032.23 276.646 1038.91 285 1048 285 1057.09 285 1063.76 276.647 1061.58 268Z" fill="#FFFFFF" fill-rule="evenodd"/><path d="M1060.49 284.435C1061.68 287.221 1064.97 288.345 1067.57 286.856 1071.62 284.531 1075.66 282.21 1079.71 279.887 1083.46 277.738 1087 282.993 1083.68 285.773 1078.95 289.738 1074.22 293.701 1069.49 297.664 1066.32 300.319 1061.89 300.751 1058.29 298.754 1045.19 291.504 1032.1 284.251 1019 277 1023.32 277 1027.64 277 1031.97 277 1036.33 288.75 1051.24 291.86 1059.79 282.807 1060.02 283.35 1060.25 283.891 1060.49 284.435Z" fill="#FFFFFF" fill-rule="evenodd"/><path d="M1061 265C1052.33 265 1043.67 265 1035 265 1040.09 254.333 1055.91 254.333 1061 265Z" fill="#FFFFFF" fill-rule="evenodd"/><path d="M1034 262.498C1031.41 248.303 1028.81 234.11 1026.22 219.914 1025.44 215.67 1019 216.221 1019 220.533 1019 238.689 1019 256.843 1019 275 1023.21 275 1027.43 275 1031.64 275 1030.62 270.261 1031.32 266.576 1034 262.498Z" fill="#FFFFFF" fill-rule="evenodd"/><path d="M1019 280C1026 283.685 1033 287.37 1040 291.054 1034.81 293.882 1029.63 296.712 1024.44 299.541 1022.01 300.865 1019 299.168 1019 296.468 1019 290.98 1019 285.49 1019 280Z" fill="#FFFFFF" fill-rule="evenodd"/></g></svg>