<svg width="136" height="136" xmlns="http://www.w3.org/2000/svg" xmlns:xlink="http://www.w3.org/1999/xlink" overflow="hidden"><defs><clipPath id="clip0"><path d="M541 199 677 199 677 335 541 335Z" fill-rule="evenodd" clip-rule="evenodd"/></clipPath></defs><g clip-path="url(#clip0)" transform="translate(-541 -199)"><path d="M625.496 265C614.5 265 603.501 265 592.504 265 589.858 254.32 597.964 244 609 244 620.037 244 628.143 254.32 625.496 265Z" fill="#FFFFFF" fill-rule="evenodd"/><path d="M552.977 250.894C549.636 249.681 550.824 244.566 554.341 245.03 566.894 246.676 579.447 248.318 592 249.965 589.154 254.492 588.282 258.679 589.076 264 577.042 259.63 565.009 255.263 552.977 250.894Z" fill="#FFFFFF" fill-rule="evenodd"/><path d="M624 268C613.666 268 603.334 268 593 268 599.07 281.333 617.929 281.333 624 268Z" fill="#FFFFFF" fill-rule="evenodd"/><path d="M662.661 245.03C666.176 244.566 667.363 249.681 664.023 250.894 651.991 255.263 639.957 259.63 627.924 264 628.719 258.679 627.847 254.492 625 249.965 637.552 248.318 650.106 246.676 662.661 245.03Z" fill="#FFFFFF" fill-rule="evenodd"/><path d="M611.227 294.039C612.481 298.192 618.478 297.898 619.318 293.648 620.543 287.429 621.772 281.218 623 275 615.24 282.635 602.756 282.635 595 275 596.227 281.218 597.456 287.429 598.683 293.648 599.522 297.898 605.52 298.192 606.772 294.039 607.517 291.583 608.258 289.123 609 286.664 609.742 289.123 610.485 291.583 611.227 294.039Z" fill="#FFFFFF" fill-rule="evenodd"/></g></svg>