<svg width="1047" height="457" xmlns="http://www.w3.org/2000/svg"><path fill="none" d="M-1-1h1049v459H-1z"/><g><path fill="#2d2d2d" d="M855.1 5.6c-.6 0-3.3 1.5-9.8 5.1a58.7 58.7 0 01-34.2 8.5h-9.7l-3.6 14.4L794 49c-.2.6-.1 1.2.1 1.2a3401 3401 0 0061-44.7zm-80.3 2l-.1.1a287756.7 287756.7 0 01-115 84.7c-.6.5.8 0 3-1 5.2-2.6 12.1-5 13.3-4.5.5.2.9 1 .9 1.7 0 1.1-4.4 19.6-5.7 24-.3 1 .7 1.1 15.2 1.1 10 0 15.7.2 16 .7.4.8-1 3-4.3 6.7-2.3 2.6 5-2.6 28.3-20l7.6-5.6-17-.2c-15.9-.1-17-.2-16.7-1.3a412.6 412.6 0 004.4-17.5l.6-2.5H742l1.9-7.7 2.2-8.6c.2-.6-3.4-.8-15.8-1-9.9-.1-16-.4-16-.8 0-.7 11.4-10 18.3-14.7l4.4-3 10.3-.5 10.3-.3 1.2-3.7c2.1-7 6.9-14.9 13.9-23.2 1.4-1.7 2.3-2.9 2.1-2.9zm-408 4l-.5.4L343 29l-21 15.4-4.4 18c-2.4 9.8-5 19.4-5.7 21.2-.6 1.9-3.2 5.8-5.7 8.8l-6 7.6a809.2 809.2 0 0039.5-28.3c0-.1 2.1-7.8 4.4-17.2 5.5-22 6-22.8 18.4-37.3a26.9 26.9 0 004.3-5.6zm234.8.7h-.1c-.6.3-15.5 11.3-33.2 24.3-29.6 21.8-32.2 23.8-32.8 26l-12.3 49.6-.3 1.5 12.3-.2 12.4-.1 6.6-31c3.7-16.9 6.7-30.7 6.9-30.5.1.1 6.6 59.1 6.7 61.6 0 .1 3.7.2 8.2.2h8.2L602.6 83a1311 1311 0 0118.6-30.5c.2.2-13.5 48.2-14.8 51.9-1 2.4-2.4 4.6-8.1 11.6-.8 1-.5.9 1.3-.4 26.8-19.6 32.9-24.1 34.1-25.3 1.2-1.1 3-7.7 9.8-35l8.7-35c.3-1-.8-1.1-15.8-1.1h-16l-18.2 31.3a890 890 0 01-18.4 31.1c-.4-.4-3.3-34.2-3.4-38.7 0-2.8.5-4.6 2-7.6a100.5 100.5 0 0119.2-23zm-148.5.8l-.4.2-33 24.3L389 60.3l-6.4 25.5-6.7 26.7c-.3 1.1.6 1.2 12 1.2h12.5l6.6-31a858 858 0 016.9-30.8c.2.2 6.6 58.8 6.7 61 0 .6 2 .8 8.2.8h8.2l18.6-30.9c10.2-17 18.5-30.7 18.5-30.4 0 1.5-14.8 52-15.8 54-.7 1.4-2.9 4.4-4.8 6.7l-3.5 4.2 3-2.2 18.8-13.8 16-11.6 8.4-34.1 8.8-35.2c.3-1.1-.8-1.2-15.8-1.2h-16l-18.2 31.4c-10 17.2-18.3 31.2-18.4 31.1-.3-.3-3.5-36.5-3.4-39.7 0-5.4 5.5-13.8 16-24.3a29 29 0 004-4.6zM948 18h-1.8c-6.1.2-12.5 1.4-18.8 3.5-17.8 6.2-28 21.6-23.3 35.2 1.5 4.5 7.6 10.5 14 13.7l5.2 2.4c.6 0 20.6-14.8 20.6-15.2 0-.3-.8-.7-1.8-1-3.8-.9-11.2-4.8-12.6-6.6-2.4-3-1.6-7.2 1.8-10 4.5-3.9 14.3-5 18.7-2.3 1.3.8 2.7 2.3 3.2 3.4 1 2.5.4 7-1.4 10l-1.4 2.2 2.2-1.7 13.3-9.8c6-4.4 11-8.4 11-8.7 0-1.7-2.8-6-5.4-8.1-5.6-4.6-14-7-23.5-7zm-834 .4a49.4 49.4 0 00-25.5 5.5C76 30.1 69 40.1 69.8 51.3a20 20 0 001.6 7.2c2.1 4.1 7 8.6 12.8 11.5a68 68 0 005.7 2.7 335 335 0 0020.5-15.1c.1-.3-1-.9-2.6-1.4A30.4 30.4 0 0196 50c-3-3.9-1-9 5-11.9 4.6-2.3 12-2.6 15.2-.6 4.3 2.5 5 7.3 2.1 13-1.2 2.4-1.2 2.5 0 1.7 13-9.3 25.2-18.7 25.2-19.4 0-1.7-4.4-7.2-7.5-9.3-5.7-4-11.2-5.2-22.2-5.1zm214.3.9l-1 3.5c-1.8 5.3-5.5 11-13 19.7a60.8 60.8 0 00-6 7.5c.9-.5 41-30 41.5-30.5.2 0-4.6-.2-10.6-.2h-10.9zm70.8 0l-2.6 10.4c-3.3 13.8-5 16.6-18.7 31.6l-7.1 7.8 5.6-4 30.2-22.2 24.6-18v-5.6h-32zm147.2 0l-2.8 11c-3.5 14-4.7 16.1-20.5 33.4l-5 5.4 8.5-6.2 30-22.1 21.7-15.9.2-2.8.2-2.8h-32.3zm300.5 0l-1.4.1c-2.8.5-5.6 2.5-11.7 7a9615 9615 0 00-63.2 46.5c-.4.4 2.5-.9 6.4-2.7 7.1-3.4 10.3-4 11.6-2.5.6.7-.6 6.6-4.5 22.3l-5.7 22.6c-.3 1 .2 1.2 3.4 1.2h3.8l13.3-9.8L813 93.4c.8-.6.5-.6-1.5 0-1.5.4-2.7.5-3.1 0-.4-.3 0-2.8.9-6.5l1.5-6 5.9-.1 6-.2L827 97c2.4 9 4.5 16.4 4.6 16.5h13.5l13.2-.1-5.5-18.9-5.5-19.2c0-.2 2.3-1.8 5-3.4a36.9 36.9 0 0019-31.9c0-5.4-1.1-8.3-4.6-12.2-3.3-3.7-7-5.7-13.2-7.3a51.8 51.8 0 00-6.9-1.3zm-598.7.6l-10.3.2-10.4.2-7.8 16.5-7.8 16.7 11.4-8.2 18.1-13.4 6.8-5v-7zm-68 0l-.1 8.8-.5 24.4-.4 15.6-4 5.1c-2.1 2.8-6.9 8.3-10.6 12.1a45.4 45.4 0 00-5.6 6.4c2.7-1.5 40.8-29.7 42-31 1.2-1.3 1.4-2.9 2.2-17.6.4-8.9 1-17.8 1.2-20l.4-3.7H180zm514.2 0l-6 24.7-6.5 25.9c-.3 1.2-.2 1.1 1.9-.4L697.4 60a354 354 0 0012.8-9.7c.8-.8 2-3.6 2.7-6.7l1.4-5.5 6.9-.3 6.9-.3 11.8-8.8 11.8-8.7h-57.5zm-410.7 0l-12 .1-7.3 16.7-12 27.5-5 11 .5-17.9c.4-17.6.4-17.8 2.1-21 1-1.8 3.4-5 5.4-7.3l5-5.7c.8-.8-2.5 1.3-7.2 4.7l-26.8 19.6L208 60.8l-3.4 7.1L201 75l.4-4.9c.4-4.1.3-4.8-.5-4.2l-11.5 8.5L179 82l-.5 5.4c-.2 3-.4 10-.5 15.5v10h24.8l11.8-24.2c6.5-13.4 12-24.6 12.4-25 .5-.4.6 7 .4 22.3l-.3 23-2 2.3-2.9 3.8c-1 1.5.5.4 27-19.2l16.9-12.4 14.7-31.4 14.8-31.8c0-.3-5.4-.5-12-.5zm-126.3 8.7c-.3 0-20.3 14.4-24.8 17.9-1.5 1.2-1.5 1.2 5.4 1.2h7l.4-1.8c.8-3 3.6-7.3 8.1-12.5l3.9-4.8zm833.3 0c-.3 0-24 17.1-26.1 18.9-.2.1 2.8.2 6.7.2h7l.4-1.9a37 37 0 018.2-12.5c2.3-2.6 4-4.7 3.8-4.7zm-168.7 8.4l8.6.3c10 .4 13 1.3 14.6 4.4 1.4 2.7 1.3 6-.3 10.2a16.5 16.5 0 01-8 8.8c-1.8 1-4.1 1.2-11.6 1.4-5.2.2-9.5.1-9.5-.1l3.1-12.7 3-12.3zm-706.4 22l-10.5 7.7c-9.7 7.2-10.3 7.7-8.8 8.4 11.8 4.8 14.1 6.8 13.6 11.7-.5 6.2-5.3 9.7-13.9 10.2-5.8.4-10.5-1.1-12.6-4-1-1.3-1.4-2.7-1.3-5.6v-4L77.4 87a11887.5 11887.5 0 01-43 31.6c-.4.3 1-.3 3-1.5a77.8 77.8 0 0124.4-10.6c1 0 3.3 1 5.2 2.3 11 7.4 33.5 8.2 48 1.6 6.5-3 14-9.6 16.7-15a28 28 0 002.3-20.2 28.5 28.5 0 00-13.3-13.5l-5.2-2.7zm833.2 0l-9.8 7.3-10.3 7.8c-.3.2 2 1.4 5 2.7 3.1 1.3 6.3 3.1 7.6 4.4 2 2 2.2 2.5 2 5.4-.7 6.4-5.3 9.9-14 10.4-5.8.4-10.6-1.1-12.6-3.9-1-1.4-1.4-2.7-1.3-5.7v-3.9L904 91.7a11461.3 11461.3 0 01-36.8 27.1c-.6.5 1.3-.4 4.1-2a68.8 68.8 0 0123.7-10.4c1 0 3.3 1 5.1 2.3 11.8 7.9 34.1 8.2 49.9.7a42.4 42.4 0 0014.1-12.7c5.5-9.4 5.5-20.2-.1-27.5a45.9 45.9 0 00-13-9.2l-2.4-1zm-599 10.5a1513.7 1513.7 0 00-40.6 30c-.7.8-3.5 11.5-3.5 13.3 0 .9 1.5 1 12 .8l12.1-.1 3-12.3c3.7-14.6 5.2-17.6 12.7-26.4a70 70 0 004.4-5.3zm566.8 8.3l-1.5.6a59.5 59.5 0 01-18 4c-5.8.5-5.8.5-6.2 2.5-.5 2.6-.5 9.3 0 10.7.3.7.7.8 1.2.5l12.3-9c9.5-7 12.6-9.3 12.2-9.3zM83 77.7l-.3.1-2.2.9c-4.5 2-10.3 3.2-17 3.7-5 .4-5.7.6-6 1.8a44 44 0 000 11.9c.2.2 1.3-.3 2.5-1.1 1-.9 6.6-5 12.2-9 8.2-6 11-8 10.8-8.2zm187.8 8l-2.3 1.6a8756.2 8756.2 0 01-33.7 24.8c-.8.8.5 1 8.3 1h9.3l2.8-6.3c2-4.5 4.2-7.8 7.3-11.4l6.3-7.4 2-2.4zm229.7 0a5957 5957 0 01-37.7 27.7c-.1.2 4.1.3 9.4.3h9.7l.4-1.8c1.3-5.2 5.2-11.2 13.6-20.7l4.6-5.5zm146.7.5c-1.3.8-35.8 26.1-36.7 27-.4.2 3.6.5 9 .5h9.5l1.3-3.6a55 55 0 0112-17.8c3-3.4 5-6 4.9-6zm100.7 4l-3.3 2.4a3959 3959 0 00-47 34.5 233.7 233.7 0 0120-11.3c3.5-1.6 4.8-1.8 12.6-2l8.6-.2 1.8-7c1.7-6.9 3.2-10.6 5.9-14.4l1.4-2zm56.8 14.4c-.2-.3-27.4 19.6-27.4 20l8.2-4c4.5-2.3 10.3-4.8 12.8-5.6l4.6-1.4 1-4.4c.5-2.4.9-4.5.8-4.6zm-120.2 33.9s-.7.2-1.7.8c-7.7 4.5-42.1 23.2-46.6 25.4-6.5 3.2-18.9 7.2-28 9.2-6.5 1.4-9.1 1.5-35.4 1.9l-28.4.3-9.7 39c-5.4 21.5-9.8 39.4-9.8 40 0 .6.2.6.8.2l79.5-58.3a14312.3 14312.3 0 0079.3-58.5zm-162 7.3l-4.9 3.7a1727668.8 1727668.8 0 01-288 211.8c-.6.5 3.8-1.4 9.8-4.3 15-7.2 28.2-12 33.1-12 1 0 2.5.5 3.3 1.2l1.6 1.3-2.4 9.8-8 32.4-5.6 22.7h38.4c26 0 38.8.2 39.6.7 2.8 1.6-.6 6.9-11.7 18.4l-8 8.2 11.2-8.3 49.6-36.2 38.3-28-42.3-.4-42.3-.3.2-1.5 6.3-26.1 6.1-24.7 45.8-.1 45.7-.2.3-1.5a8131.4 8131.4 0 0110.3-42.3c0-.2-18-.5-40-.5-38 0-40 0-40-1.1 0-1.6 2.4-3.8 13.6-12.5 9.1-7.2 33.6-25.6 37.9-28.6 4.7-3.3 6.7-3.6 32.8-4l24.4-.3 1.7-7a104 104 0 0112.6-29.5c6.3-11 14.3-21.8 27.8-37.5l2.9-3.3zm509.5 14l-7.6 5.6-336.6 247c-.4.4 4.3-1.9 10.4-5 26.2-13.5 46.5-20.2 58.4-19.3 5.5.4 8.4 1.8 13.4 6.3a90.4 90.4 0 0015.8 11c8 4 21.9 7.8 33.5 9 12.3 1.2 31-.2 43-3.3 24-6.1 48.3-20.6 64.7-38.7 22.4-24.5 35-51.4 43.2-92 2.3-11.2 3-19.4 2.4-31-1-20.5-1.1-19.7 2.5-26.9 7.1-14.4 20.9-29.8 52-58.1l5-4.6zm-144.9 13c-16.7.3-33.9 3.8-48.9 10.4a142.1 142.1 0 00-71.8 71 169.5 169.5 0 00-12.8 35.3 146 146 0 00-6.9 44c0 8.7 1 19 2 21.8.3.8.5.8 1.4 0l31-22.8 29.7-21.9 3.5-14.4c9.2-37.8 20.1-57.7 38-69.2 14.1-9 35.2-10 45.7-2 3.2 2.5 3.5 5.3 1 10.5a68.3 68.3 0 01-14 18.6c-3.4 3.6-5.2 5.8-4 4.9a13135 13135 0 0076-55.8c.8-.8.4-1.5-2.3-4.7a73.2 73.2 0 00-28.8-19.4 102.4 102.4 0 00-38.8-6.3zm-238 3.3l-63.6 46.7a698250.7 698250.7 0 01-121.4 89.5c0 .1 5.4-2.4 12.1-5.7 18.8-9 24.5-11.3 29.3-11.7 3.7-.3 4.4-.2 5.8 1.1.9.9 1.7 2.2 2 3 .2 1-5.3 24.3-13.4 57.1L486 411.7H505l21.8-16 35.7-26.2c7.7-5.6 13.8-10.3 13.7-10.4 0-.1-2.2.5-4.6 1.4-2.5 1-5.5 1.7-6.7 1.7-2.2 0-4.3-1.4-4.3-2.8 0-.5 4.7-19.7 6.6-27.1l.7-2.5H597.2l9.2 33.8c5 18.7 10.1 37.1 11.2 41l2 7.1h67l-3.2-11c-13-44.1-25-85.7-24.9-85.8l7.1-3.6a90.3 90.3 0 0051.3-65.1 71 71 0 00.7-29.7 43.3 43.3 0 00-13-21.8c-11.4-10.5-27.3-16.4-49-18.1l-6.5-.5zm-308.3 1.8l-21.2.1c-.2.2-7.3 28.6-15.8 63.3a20286.3 20286.3 0 01-16 65.3c.2 0 17-12.2 37.3-27l36.9-27.2 3.7-14.3 3.7-14.4 16.1-.3 16.2-.3 30.6-22.5 30.6-22.5-71.6-.1h-50.5zm253.8 44l22.1.3c24 .3 25.3.5 31.3 4.4 2.9 1.9 6.2 6.6 6.9 10 1.5 7-.1 16.6-4.5 25.7a35.9 35.9 0 01-24.5 19.6c-3.3.9-8.9 1.2-25.2 1.4-11.7.2-21 .1-21-.2 0-.3 3.3-14.2 7.4-30.8l7.5-30.3zm311.3 39.4h.7l1.5.6c2.3 1.1 2.4 3.2.7 13.4-3 17.4-9.7 40.4-15.6 53a81.3 81.3 0 01-27.4 33.4 41.2 41.2 0 01-17 6.3c-20.2 3.2-34.5-5.1-38.1-22-1.5-7.1-1.3-10.2.9-13.6 3.4-5.4 8.9-9.8 61-49 22-16.6 28.8-21.5 32.5-22h.8zm-453.5 92.9c-.4 0-1.5.7-3 1.8a115795.6 115795.6 0 01-128.7 94.5c-.5.5 3.3-1.8 8.6-5.1 26.8-17.2 47.8-28.8 57.4-31.7 3.8-1.2 6.2-1.3 24-1.3h19.6l.7-2.5 4-15.7c4.4-17.6 7-24 13.8-34.4a703.2 703.2 0 003.6-5.6zm100.8 34c-.3-.2-77.6 56.6-78.8 58l7.2-4.3a255.7 255.7 0 0166-30.2c.5-.5 6-23.1 5.6-23.5z"/><path fill="#3dd8ff" fill-opacity=".9" d="M204.2 124l-.5.3-68.3 50.2-66.1 48.6 47 .1 47.1.2-75.8 78.3L11.8 380 8 395c-2 8.3-3.8 15.4-3.8 15.9 0 .6 11.4.8 53.7 1l53.7.1.2 1.8c.3 3-2.4 7.1-9.7 14.7-8.5 8.7-13.4 12 44-30l43.8-32-48.6-.2c-27-.1-48.6-.4-48.5-.8.2-.3 34-35.7 75.3-78.6l75-78.2 3.7-14.6c2-8 3.8-15 3.8-15.5 0-.6-8.8-.8-42.2-.8-40 0-42.3 0-43.7-1.2-3.2-2.6-.5-9.7 7-19a423 423 0 0128.4-29.4c2.7-2.5 4.2-4.1 4-4.1zm-143 53.8l-2.2 6.8c-2.6 7.8-7.9 19-12.2 25.4-4 6.1-13 17-38.2 45.7-.8.9.8 0 3.5-2 11.3-8.3 102.8-75.4 103-75.7.2-.1-11.9-.2-26.8-.2h-27zm179.4 165l-.5.2a210543 210543 0 01-92.8 68.2c-.4.3 10 .5 23.3.5 19.8 0 23.9-.1 23.9-.9 0-1.8 3.4-11.2 6-16.6 4.9-10.4 13.8-21.8 36.3-46.6a24.2 24.2 0 003.8-4.9z"/></g></svg>