<svg width="203" height="203" xmlns="http://www.w3.org/2000/svg" xmlns:xlink="http://www.w3.org/1999/xlink" overflow="hidden"><defs><clipPath id="clip0"><path d="M283 188 486 188 486 391 283 391Z" fill-rule="evenodd" clip-rule="evenodd"/></clipPath></defs><g clip-path="url(#clip0)" transform="translate(-283 -188)"><path d="M384.5 189C328.982 189 284 233.982 284 289.5 284 345.018 328.982 390 384.5 390 440.018 390 485 345.018 485 289.5 485 233.982 440.018 189 384.5 189ZM384.5 227.903C404.195 227.903 420.161 243.87 420.161 263.565 420.161 283.259 404.195 299.226 384.5 299.226 364.805 299.226 348.839 283.259 348.839 263.565 348.839 243.87 364.805 227.903 384.5 227.903ZM384.5 367.306C360.712 367.306 339.397 356.527 325.132 339.669 332.751 325.323 347.664 315.435 365.048 315.435 366.021 315.435 366.994 315.598 367.926 315.881 373.194 317.583 378.705 318.677 384.5 318.677 390.295 318.677 395.847 317.583 401.074 315.881 402.006 315.598 402.979 315.435 403.952 315.435 421.336 315.435 436.249 325.323 443.868 339.669 429.603 356.527 408.288 367.306 384.5 367.306Z" fill="#4FC0E8" fill-rule="evenodd"/></g></svg>