<svg width="203" height="203" xmlns="http://www.w3.org/2000/svg" xmlns:xlink="http://www.w3.org/1999/xlink" overflow="hidden"><defs><clipPath id="clip0"><path d="M509 188 712 188 712 391 509 391Z" fill-rule="evenodd" clip-rule="evenodd"/></clipPath></defs><g clip-path="url(#clip0)" transform="translate(-509 -188)"><path d="M610 189C554.206 189 509 233.982 509 289.5 509 345.018 554.206 390 610 390 665.794 390 711 345.018 711 289.5 711 233.982 665.794 189 610 189ZM610 227.903C629.793 227.903 645.839 243.87 645.839 263.565 645.839 283.259 629.793 299.226 610 299.226 590.207 299.226 574.161 283.259 574.161 263.565 574.161 243.87 590.207 227.903 610 227.903ZM610 367.306C586.094 367.306 564.672 356.527 550.337 339.669 557.993 325.323 572.98 315.435 590.452 315.435 591.429 315.435 592.406 315.598 593.343 315.881 598.638 317.583 604.176 318.677 610 318.677 615.824 318.677 621.403 317.583 626.657 315.881 627.594 315.598 628.571 315.435 629.548 315.435 647.02 315.435 662.007 325.323 669.663 339.669 655.328 356.527 633.906 367.306 610 367.306Z" fill="#ED85C0" fill-rule="evenodd"/></g></svg>