<svg xmlns="http://www.w3.org/2000/svg" width="1141" height="530" overflow="hidden"><path d="M880.12 31.74h-.1c-.56.13-3.2 1.55-9.7 5.15-12.19 6.75-19.26 8.5-34.22 8.5h-9.7l-3.57 14.38-3.86 15.52c-.16.64-.08 1.16.18 1.16.47 0 59.56-43.18 60.8-44.43.16-.16.23-.26.17-.28zm-80.32 2.08c-.03 0-.07.03-.14.08l-57.48 42.2c-31.08 22.8-56.95 41.91-57.5 42.45-.54.54.83.08 3.05-1.02 5.18-2.59 12.08-4.9 13.24-4.46.5.19.9.96.9 1.72 0 1.11-4.4 19.64-5.69 23.94-.32 1.08.7 1.16 15.19 1.16 10.08 0 15.68.24 15.96.69.5.82-.89 3.05-4.2 6.74-2.35 2.61 5.02-2.58 28.3-19.94l7.6-5.67-17.06-.17c-15.82-.16-17.03-.26-16.71-1.32.18-.63 1.1-4.27 2.05-8.09l2.37-9.41.65-2.48h36.69l1.88-7.77c1.03-4.27 2.02-8.13 2.18-8.57.24-.63-3.37-.86-15.79-1-9.9-.1-16.08-.42-16.08-.82 0-.72 11.5-9.93 18.34-14.67l4.47-3.1 10.31-.37 10.3-.38 1.13-3.63c2.17-7.01 6.9-14.93 13.92-23.24 1.43-1.7 2.29-2.87 2.12-2.87zm-407.93 4.01c-.1.01-.29.12-.58.34L368.06 55.2l-20.92 15.34-4.43 17.99c-2.44 9.9-4.98 19.48-5.67 21.3-.68 1.83-3.24 5.8-5.7 8.8l-6.12 7.53c-1.14 1.41 35.65-24.9 39.55-28.28.12-.1 2.14-7.83 4.47-17.15 5.51-21.97 5.93-22.81 18.4-37.32 2.99-3.49 4.42-5.33 4.3-5.56-.02-.02-.04-.02-.07-.02zm234.75.62c-.01 0-.06.01-.13.05-.57.34-15.5 11.26-33.19 24.27-29.64 21.82-32.2 23.85-32.8 26.1-.57 2.12-11.3 45.43-12.27 49.54l-.36 1.5 12.38-.17 12.37-.18 6.6-30.88c3.64-16.98 6.71-30.76 6.84-30.64.16.17 6.64 59.16 6.77 61.68 0 .1 3.68.17 8.17.17h8.17l18.4-30.7c10.13-16.88 18.5-30.61 18.6-30.52.23.24-13.42 48.2-14.77 51.88-.92 2.49-2.41 4.63-8.1 11.63-.79.97-.47.88 1.26-.38 26.8-19.6 32.94-24.14 34.17-25.3 1.2-1.13 3.02-7.69 9.77-35.1 4.56-18.53 8.46-34.22 8.65-34.85.34-1.08-.71-1.16-15.71-1.16h-16.07L627.2 76.72c-10 17.24-18.3 31.22-18.44 31.07-.38-.38-3.3-34.24-3.34-38.67-.02-2.81.44-4.63 1.95-7.65 2.27-4.54 10.69-14.88 16.31-20.05 1.86-1.7 3.05-2.91 2.94-2.97zm-148.5.87c-.03-.02-.15.05-.38.22-1.2.9-16.06 11.83-33.01 24.28L413.9 86.45l-6.37 25.56a3469.1 3469.1 0 01-6.72 26.72c-.33 1.07.55 1.16 12.08 1.15h12.44l6.6-31c3.64-17.05 6.72-30.89 6.85-30.76.21.21 6.63 58.73 6.68 60.94.02.62 2.12.83 8.25.83h8.22l18.54-30.9C490.67 92 499 78.33 499 78.62c0 1.52-14.79 51.9-15.84 53.98a49.66 49.66 0 01-4.76 6.68l-3.51 4.23 2.97-2.17 18.87-13.82 15.89-11.64 8.5-34.09 8.8-35.24c.28-1.08-.8-1.16-15.8-1.15l-16.1.02-18.15 31.35c-9.98 17.24-18.24 31.25-18.36 31.13-.32-.32-3.48-36.55-3.46-39.68.03-5.42 5.51-13.78 15.97-24.35 2.64-2.67 4.24-4.46 4.1-4.55zm494.82 4.75c-.63 0-1.26 0-1.89.02a63.47 63.47 0 00-18.74 3.53c-17.77 6.18-27.97 21.53-23.35 35.16 1.55 4.55 7.67 10.54 14.02 13.7a64.46 64.46 0 005.2 2.44c.6 0 20.65-14.82 20.65-15.27 0-.25-.81-.65-1.8-.9-3.8-.95-11.22-4.85-12.6-6.62-2.4-3.03-1.65-7.2 1.82-10.13 4.45-3.77 14.26-4.95 18.63-2.24a9.12 9.12 0 013.2 3.44c1.04 2.5.4 6.91-1.41 9.9l-1.37 2.26 2.22-1.67c1.22-.92 7.2-5.32 13.28-9.77 6.09-4.45 11.07-8.38 11.07-8.73 0-1.7-2.91-6-5.49-8.11-5.62-4.6-14.06-7-23.44-7.01zm-834.07.39c-11.17.06-16.83 1.3-25.44 5.56-12.56 6.23-19.4 16.24-18.68 27.42.19 2.88.82 5.63 1.67 7.27 2.13 4.13 7.05 8.54 12.82 11.5 2.9 1.49 5.44 2.7 5.63 2.7.55 0 20.35-14.58 20.55-15.14.1-.27-1.09-.87-2.64-1.34-4.46-1.33-10.17-4.45-11.68-6.38-3.04-3.86-.9-9.02 4.9-11.86 4.68-2.29 12.04-2.59 15.34-.63 4.27 2.54 5.05 7.35 2.1 13.1-1.21 2.38-1.22 2.48-.08 1.65 13.02-9.35 25.25-18.75 25.25-19.39 0-1.73-4.44-7.25-7.52-9.36-5.72-3.9-11.22-5.17-22.22-5.1zm214.34.93l-1.1 3.47c-1.7 5.37-5.4 11.04-12.87 19.75-3.77 4.39-6.46 7.74-5.98 7.44.81-.5 40.85-29.87 41.46-30.41.15-.14-4.63-.25-10.62-.25h-10.89zm70.75 0l-2.53 10.41c-3.37 13.83-5 16.6-18.74 31.64l-7.1 7.78 5.62-4.12c3.09-2.27 16.68-12.22 30.2-22.1L455.99 51l.03-2.8.03-2.82h-32.09zm147.24 0l-2.75 11c-3.52 14.05-4.8 16.12-20.55 33.36l-4.95 5.43 8.47-6.23 30.06-22.08L603.08 51l.2-2.8.2-2.82H571.2zm300.5 0c-.5 0-.96.03-1.43.11-2.8.46-5.53 2.45-11.7 6.98-34.52 25.31-62.63 46.02-63.2 46.55-.36.33 2.53-.9 6.42-2.73 7.13-3.36 10.34-4.04 11.64-2.47.53.63-.68 6.52-4.55 22.3-2.9 11.8-5.44 21.96-5.64 22.6-.31 1 .12 1.16 3.4 1.16h3.74l13.27-9.75c7.3-5.36 13.74-10.1 14.3-10.54.81-.63.5-.64-1.46-.05-1.53.46-2.73.5-3.1.13-.38-.37-.04-2.91.88-6.56l1.49-5.94 5.94-.2 5.94-.18 4.45 16.34a510.13 510.13 0 004.66 16.56c.12.12 6.17.13 13.45.03l13.24-.17-5.53-18.84a1028.08 1028.08 0 01-5.54-19.24c-.01-.22 2.29-1.75 5.1-3.39 11.78-6.85 18.83-18.78 18.85-31.88.01-5.46-1.06-8.37-4.52-12.19-3.35-3.7-6.98-5.72-13.17-7.3-2.25-.58-3.95-1.01-5.4-1.21-.54-.07-1.04-.11-1.53-.12zM273 46.02l-10.34.18-10.34.18-7.83 16.48a997.65 997.65 0 00-7.83 16.68c0 .12 5.13-3.56 11.4-8.17l18.17-13.35 6.77-4.96v-7.04zm-68.06.03l-.06 8.76c-.04 4.81-.26 15.77-.5 24.35l-.43 15.6-3.94 5.14a188.48 188.48 0 01-10.57 12.12c-3.65 3.83-6.19 6.7-5.64 6.38 2.64-1.56 40.8-29.75 41.99-31.02 1.23-1.32 1.42-2.86 2.17-17.59.45-8.87 1-17.85 1.21-19.94l.4-3.8h-24.62zm514.22 0l-6.05 24.62c-3.33 13.54-6.22 25.2-6.43 25.92-.34 1.17-.15 1.13 1.86-.39 1.23-.93 7.44-5.5 13.8-10.15a353.95 353.95 0 0012.89-9.7c.77-.73 1.89-3.51 2.68-6.69l1.35-5.44 6.9-.33 6.91-.33 11.79-8.75 11.78-8.76h-57.48zm-410.64.02l-12.06.02-7.23 16.67c-3.98 9.16-9.42 21.57-12.1 27.57l-4.87 10.9.4-17.8c.4-17.67.41-17.83 2.15-21.03a49 49 0 015.43-7.32c2.02-2.25 4.26-4.8 4.99-5.67.73-.87-2.55 1.26-7.27 4.72L251.2 73.71l-18.17 13.26-3.46 7.13-3.46 7.13.4-4.94c.34-4.14.25-4.82-.5-4.21-.5.4-5.67 4.21-11.49 8.48l-10.57 7.75-.43 5.38c-.24 2.96-.46 9.92-.5 15.46l-.06 10.08h24.85l11.77-24.29c6.47-13.35 12.07-24.58 12.43-24.94.44-.44.55 7.05.35 22.27l-.3 22.93-1.92 2.42a134.12 134.12 0 00-2.9 3.79c-1.06 1.46.49.36 27.04-19.2l16.8-12.39 14.7-31.39c8.1-17.26 14.74-31.6 14.76-31.88.02-.27-5.39-.49-12.02-.48zm-126.35 8.57c-.3 0-20.25 14.48-24.73 17.95-1.56 1.2-1.51 1.22 5.38 1.22h6.96l.44-1.82c.73-2.94 3.55-7.31 8.07-12.5 2.33-2.66 4.07-4.85 3.88-4.85zm833.28 0c-.25 0-23.93 17.2-26.09 18.94-.15.13 2.87.23 6.72.23h7l.42-1.91c.57-2.63 3.35-6.86 8.2-12.5 2.26-2.62 3.94-4.76 3.75-4.76zm-168.67 8.41l8.65.34c9.88.38 12.97 1.31 14.56 4.39 1.4 2.69 1.3 5.92-.29 10.17a16.52 16.52 0 01-7.93 8.82c-1.85.98-4.19 1.27-11.73 1.46-5.18.13-9.41.06-9.41-.17 0-.22 1.38-5.94 3.07-12.7l3.08-12.3zM140.4 85.07l-10.45 7.71c-9.77 7.21-10.34 7.75-8.85 8.36 11.85 4.85 14.12 6.8 13.66 11.73-.6 6.25-5.3 9.7-13.94 10.24-5.78.35-10.56-1.14-12.61-3.93-1.05-1.43-1.36-2.78-1.3-5.73l.07-3.87-4.7 3.46c-2.58 1.9-13.17 9.66-23.53 17.23a1191.1 1191.1 0 00-19.5 14.41c-.36.36.98-.3 2.98-1.44 11-6.33 20.88-10.62 24.49-10.62 1 0 3.31 1.01 5.15 2.25 11.05 7.43 33.53 8.2 48 1.65 6.59-2.98 14.06-9.66 16.78-15 3.3-6.44 4.22-14.6 2.3-20.22-1.6-4.7-7.1-10.26-13.37-13.53l-5.18-2.7zm833.23.07l-9.83 7.25a443.34 443.34 0 00-10.33 7.75c-.27.27 1.96 1.5 4.96 2.72 3.2 1.3 6.38 3.14 7.69 4.44 2.05 2.04 2.2 2.48 1.92 5.43-.62 6.4-5.24 9.84-13.96 10.38-5.76.35-10.56-1.14-12.6-3.9-1.04-1.43-1.34-2.76-1.27-5.74l.09-3.88-11.34 8.32c-6.23 4.58-16.83 12.33-23.56 17.24a464.01 464.01 0 00-13.21 9.85c-.55.51 1.33-.43 4.16-2.1 10.8-6.35 19.84-10.28 23.63-10.28 1 0 3.32 1.01 5.15 2.25 11.74 7.9 34.12 8.23 49.88.75 4.53-2.15 11.7-8.61 14.1-12.72 5.5-9.38 5.46-20.25-.1-27.54-1.85-2.42-8.58-7.16-12.98-9.14l-2.4-1.08zM374.65 95.56c-.2 0-.96.56-2.19 1.45-15.28 11.03-37.92 27.8-38.46 28.48-.7.9-3.5 11.62-3.5 13.4 0 .9 1.5 1 12.06.85l12.06-.18 3.05-12.3c3.6-14.53 5.09-17.6 12.66-26.36 2.7-3.11 4.05-4.68 4.32-5.17.07-.12.06-.18 0-.17zm566.72 8.3c-.14-.02-.67.22-1.49.64-3.47 1.75-11.55 3.59-17.92 4.07-5.85.44-5.86.44-6.26 2.41-.51 2.58-.5 9.34.01 10.7.26.68.68.85 1.16.47.41-.32 5.95-4.38 12.31-9.02 9.49-6.91 12.6-9.24 12.19-9.28zm-833.41.11c-.03-.02-.12-.02-.26.02-.4.1-1.16.44-2.2.88-4.54 1.94-10.28 3.2-17 3.71-5.04.39-5.73.6-6.06 1.83-.53 1.95-.5 11.32.04 11.85.24.24 1.36-.26 2.48-1.1 1.12-.85 6.65-4.9 12.28-9.02 8.12-5.92 10.92-7.96 10.72-8.17zm187.83 7.83l-2.3 1.71-17.5 12.82a783.92 783.92 0 00-16.17 12c-.81.75.5.9 8.3.9h9.28l2.85-6.28c2-4.43 4.13-7.77 7.22-11.34 2.4-2.8 5.26-6.14 6.35-7.44l1.97-2.37zm229.71.07c.01-.04-.01-.03-.08.02-.54.41-9.15 6.76-19.15 14.11-10 7.35-18.3 13.48-18.44 13.63-.16.14 4.08.26 9.4.26h9.68l.44-1.82c1.25-5.21 5.14-11.16 13.51-20.65 2.67-3.02 4.57-5.3 4.64-5.55zm146.68.57l-.06.02c-1.19.72-35.74 26.06-36.63 26.86-.35.32 3.6.57 8.95.57h9.58l1.24-3.65c1.66-4.88 5.05-9.9 12.02-17.8 3-3.38 5.1-5.96 4.9-6zm100.71 3.99l-3.3 2.39c-15.8 11.45-46.38 33.92-46.9 34.47-.37.39.37.04 1.65-.76 6.33-4 14.9-8.93 18.32-10.53 3.43-1.6 4.7-1.8 12.5-2l8.69-.21 1.74-6.96c1.74-6.94 3.26-10.65 5.9-14.42l1.4-1.98zm56.79 14.31c-.17-.22-27.37 19.66-27.37 20 0 .1 3.69-1.68 8.2-3.97 4.5-2.29 10.26-4.8 12.8-5.56l4.6-1.4.97-4.42c.54-2.44.9-4.52.8-4.65zm-120.14 33.92c-.11-.05-.77.25-1.72.8-7.72 4.5-42.14 23.28-46.57 25.42-6.58 3.18-18.94 7.24-28.1 9.22-6.42 1.4-9.07 1.53-35.33 1.87l-28.38.36-9.75 38.99c-5.36 21.44-9.76 39.4-9.77 39.9-.02.62.22.7.8.25.45-.35 36.2-26.59 79.45-58.3 43.25-31.7 78.94-57.96 79.3-58.35.09-.1.11-.15.07-.16zM547.57 172l-4.95 3.64-146.04 107.28c-77.6 57-141.52 104.05-142.07 104.56-.54.51 3.92-1.44 9.91-4.33 14.93-7.2 28.14-11.99 33.1-11.99.98 0 2.47.56 3.31 1.25l1.54 1.24-2.42 9.82-7.97 32.46-5.56 22.64 38.4.02c25.95.01 38.78.24 39.6.72 2.79 1.62-.57 6.87-11.74 18.35l-7.97 8.18 11.23-8.22 49.54-36.27 38.3-28.05-42.26-.33-42.27-.33.2-1.45c.1-.8 2.94-12.54 6.3-26.1l6.1-24.65 45.72-.17 45.73-.17.34-1.48 5.3-21.64c2.72-11.08 4.95-20.38 4.95-20.65 0-.27-17.99-.5-39.97-.5-38.1 0-39.98-.05-39.98-1.19 0-1.56 2.4-3.77 13.54-12.48 9.15-7.15 33.63-25.61 37.88-28.57 4.77-3.32 6.72-3.55 32.79-3.96l24.4-.38 1.8-6.94c2.75-10.73 5.62-17.5 12.51-29.52 6.36-11.08 14.34-21.82 27.89-37.52l2.82-3.27zm509.48 14.02l-7.6 5.54a419972.8 419972.8 0 00-336.66 247.12c-.35.31 4.31-1.97 10.36-5.08 26.24-13.47 46.53-20.17 58.42-19.29 5.57.42 8.44 1.75 13.47 6.26 4.23 3.78 11.44 8.82 15.8 11.02 8 4.05 21.85 7.75 33.43 8.93 12.28 1.25 31.07-.16 43.12-3.23 23.92-6.11 48.21-20.65 64.62-38.67 22.37-24.57 34.98-51.41 43.2-91.95a113.36 113.36 0 002.35-30.99c-1-20.57-1.07-19.77 2.5-26.97 7.16-14.39 20.93-29.79 52.03-58.17l4.96-4.52zm-144.93 13c-16.7.24-33.92 3.75-48.9 10.4-31.96 14.18-55.86 37.75-71.86 70.88-5.85 12.11-8.55 19.62-12.77 35.42-5.47 20.48-6.84 29.29-6.86 43.88 0 8.83.92 19.17 1.96 21.88.32.83.53.84 1.44.06.6-.5 14.49-10.77 30.88-22.82l29.8-21.9 3.5-14.38c9.2-37.87 20.12-57.77 38-69.24 14.12-9.06 35.18-9.95 45.7-1.94 3.22 2.47 3.49 5.19 1.02 10.47-2.66 5.68-6.38 10.62-13.98 18.56-3.47 3.62-5.27 5.82-4 4.9A13135 13135 0 00982 229.37c.8-.74.45-1.43-2.28-4.63-6.81-7.98-17.49-15.2-28.77-19.48-9.54-3.62-20.4-5.65-31.71-6.13-2.36-.1-4.73-.13-7.11-.1zm-237.98 3.27l-63.61 46.75L518 317.03c-15.9 11.68-28.9 21.33-28.9 21.45 0 .11 5.45-2.43 12.12-5.65 18.74-9.04 24.5-11.35 29.31-11.73 3.7-.3 4.4-.17 5.78 1.14a7.65 7.65 0 011.95 2.98c.22.89-5.27 24.3-13.39 57.1l-13.76 55.58h18.88l21.77-16.02c11.97-8.81 28.05-20.6 35.72-26.2 7.67-5.61 13.87-10.28 13.76-10.39-.1-.1-2.2.54-4.66 1.43-2.45.9-5.47 1.63-6.7 1.63-2.14 0-4.31-1.37-4.31-2.72 0-.55 4.7-19.75 6.67-27.18l.65-2.48h29.35l9.2 33.86a21128.7 21128.7 0 0011.15 40.97l1.96 7.1h67.06l-3.25-11.06c-12.94-44.09-24.97-85.64-24.83-85.74l7.1-3.57c28.13-14.02 44.25-34.52 51.26-65.15 2.31-10.13 2.6-22.48.67-29.74-2.34-8.84-6.41-15.66-12.98-21.74-11.4-10.56-27.28-16.43-49.01-18.11l-6.43-.5zm-308.38 1.81c-13 .01-21.12.06-21.18.13-.14.13-7.24 28.6-15.79 63.27a20286.3 20286.3 0 01-15.88 64.18c-.18.64-.21 1.16-.06 1.16s16.9-12.2 37.21-27.13L387 278.6l3.68-14.34 3.68-14.34 16.16-.33 16.17-.33 30.59-22.47 30.6-22.47-71.53-.16c-19.67-.05-37.58-.06-50.59-.05zm253.8 44.06l22.15.25c24.03.27 25.34.45 31.24 4.34 2.94 1.93 6.23 6.66 6.94 9.97 1.52 7.15-.13 16.64-4.47 25.75-4.77 10-13.23 16.78-24.49 19.64-3.29.83-8.93 1.15-25.22 1.42-11.7.19-20.98.09-21-.24 0-.31 3.34-14.2 7.42-30.85l7.43-30.28zm311.33 39.35a5.78 5.78 0 012.18.57c2.34 1.12 2.45 3.21.73 13.4-2.94 17.42-9.68 40.38-15.57 53.02-6.56 14.1-17.13 26.94-27.47 33.39a41.25 41.25 0 01-16.97 6.34c-20.23 3.14-34.51-5.14-38.1-22.09-1.5-7.1-1.31-10.14.87-13.57 3.43-5.4 8.9-9.8 61-49.03 21.99-16.56 28.8-21.45 32.57-21.98.27-.04.52-.05.76-.05zm-453.5 92.85c-.34.07-1.46.78-2.92 1.85-1.95 1.44-31.5 23.07-65.66 48.07-34.17 25-62.56 45.88-63.1 46.41-.55.54 3.31-1.78 8.58-5.15 26.79-17.11 47.8-28.72 57.38-31.67 3.8-1.17 6.19-1.3 23.94-1.3h19.73l.65-2.48c.36-1.36 2.15-8.43 3.98-15.7 4.4-17.56 7-24 13.84-34.36 1.68-2.54 3.32-5.03 3.63-5.53.08-.12.05-.17-.06-.14zm100.76 34.05c-.2-.21-77.52 56.61-78.78 57.91-.38.39 2.87-1.5 7.23-4.2 21.68-13.41 45.76-24.74 60.8-28.58 2.54-.65 4.86-1.4 5.16-1.65.56-.49 5.96-23.12 5.6-23.48z" fill="#fff" fill-opacity=".94"/><path d="M229.16 150.26c-.04 0-.18.08-.42.25l-68.38 50.22-66.08 48.52 47.08.17 47.08.17-75.83 78.31-75.83 78.32L33 421.24c-2.08 8.26-3.8 15.38-3.8 15.83-.02.65 11.37.86 53.67 1l53.69.17.2 1.76c.35 2.99-2.37 7.1-9.7 14.67-8.46 8.74-13.35 12.07 44.07-29.98l43.77-32.05-48.64-.17c-26.9-.1-48.54-.42-48.42-.74.12-.31 33.97-35.72 75.22-78.69l75-78.12 3.74-14.64a471.75 471.75 0 003.8-15.47c.05-.65-8.8-.83-42.16-.83-39.98 0-42.3-.06-43.72-1.21-3.17-2.57-.54-9.73 7-19.06 4.62-5.71 19.16-20.75 28.39-29.35 2.65-2.48 4.23-4.09 4.05-4.1zM86.22 203.98L84 210.76c-2.57 7.87-7.87 18.97-12.15 25.47-4.02 6.09-13.06 16.87-38.3 45.67-.77.88.83-.04 3.56-2.03 11.3-8.26 102.78-75.43 103.03-75.65.15-.13-11.92-.24-26.82-.24h-27.1zm179.39 164.96c-.09 0-.26.1-.53.3l-47.24 34.62a9944.58 9944.58 0 00-45.56 33.48c-.35.31 10.1.56 23.29.56 19.83 0 23.92-.15 23.92-.9 0-1.79 3.39-11.25 5.96-16.64 4.93-10.32 13.88-21.8 36.33-46.62 2.6-2.87 3.96-4.56 3.88-4.78-.01-.02-.03-.03-.05-.02z" fill="#3dd8ff" fill-opacity=".94"/></svg>